<svg xmlns="http://www.w3.org/2000/svg" viewBox="0 0 24 24" fill="currentColor" width="1em" height="1em" class="text-xl"><g clip-path="url(#a)"><path d="M12 9a2 2 0 1 0 0-4 2 2 0 0 0 0 4z"></path><path fill-rule="evenodd" clip-rule="evenodd" d="M16 13.268V13c0-1.875-1.333-3-4-3s-4 1.125-4 3v.268c0 .707.392 1.34 1.085 1.483.631.13 1.573.249 2.915.249s2.284-.118 2.915-.249c.693-.143 1.085-.775 1.085-1.483zm-2.224-.89c.094.073.2.18.22.502A14.64 14.64 0 0 1 12 13a14.64 14.64 0 0 1-1.996-.12c.02-.322.126-.429.22-.501.183-.142.682-.379 1.776-.379 1.094 0 1.593.237 1.776.379z"></path><path d="M9 17a1 1 0 1 0 0 2h6a1 1 0 1 0 0-2H9z"></path><path fill-rule="evenodd" clip-rule="evenodd" d="M6 1a3 3 0 0 0-3 3v16a3 3 0 0 0 3 3h12a3 3 0 0 0 3-3V4a3 3 0 0 0-3-3H6zm12 2H6a1 1 0 0 0-1 1v16a1 1 0 0 0 1 1h12a1 1 0 0 0 1-1V4a1 1 0 0 0-1-1z"></path></g><defs><clipPath><path d="M0 0H24V24H0z"></path></clipPath></defs></svg>